<svg width="120" height="36" viewBox="0 0 120 36" xmlns="http://www.w3.org/2000/svg"><title>logo</title><path d="M7.562 18.788C3.152 17.635.288 15.18.168 15.078c-.126-.11-.187-.275-.163-.44.025-.165.132-.305.284-.372l2.968-1.32-.018-.243-.015-.325.006-.618c0-.06.004-.13.01-.204l.03-.333c.013-.178.03-.38.068-.59l.013-.086c.037-.227.073-.462.138-.71l.092-.386.107-.348.026-.082c.066-.228.157-.458.246-.68l.062-.158c.03-.076.065-.157.105-.237l.147-.31c.052-.108.104-.217.166-.32l.215-.382c.056-.098.117-.19.178-.283l.206-.315c.032-.05.068-.1.103-.146l.12-.164c.067-.09.133-.178.2-.265.4-.495.83-.954 1.284-1.374.475-.426.952-.805 1.422-1.13.075-.054.16-.108.244-.163l.49-.31.726-.41c.506-.266.988-.49 1.436-.665.485-.2.955-.35 1.31-.458.455-.13.827-.223 1.147-.285l.072-.014c.147-.028.285-.055.417-.073l.123-.02c.104-.016.2-.03.292-.04l.76-.062c.243-.016.46.155.506.395.046.24-.095.478-.328.553l-.677.236c-.074.026-.142.055-.213.087l-.13.055c-.106.043-.213.095-.326.15l-.066.03c-.26.124-.56.287-.918.497-.295.18-.655.408-1.012.676-.335.243-.686.53-1.05.86l-.84.844c-.047.053-.096.106-.142.16-.296.342-.584.723-.86 1.14-.24.376-.46.778-.645 1.19l-.145.36c-.01.022-.02.045-.027.07l-.052.156c-.01.037-.026.08-.04.123-.018.052-.037.104-.05.157l-.08.31c-.02.068-.028.118-.037.167l-.02.113-.028.143c-.007.035-.013.064-.015.092l-.02.188c-.016.124-.03.242-.03.345l-.01.27.008.246c0 .122.013.23.026.344l.012.113c0 .008 0 .015.002.023l1.68-.747c.176-.078.38-.045.523.083.142.128.196.328.138.51-.06.192-1.445 4.754 2.465 7.79.162.126.228.34.165.534-.063.195-.242.33-.447.336-.184.006-.366.01-.547.01-1.452 0-2.93-.195-4.394-.578zM18.974 13.2c.14.915-.087 1.83-.637 2.575-.65.882-1.694 1.41-2.792 1.41-.744-.002-1.454-.236-2.055-.678-1.537-1.135-1.866-3.31-.73-4.847.65-.882 1.693-1.408 2.79-1.408.744 0 1.455.234 2.055.677.745.548 1.23 1.354 1.37 2.27zm-1.748 13.272c-.23.057-.476.092-.714.127l-.166.023c-.08.013-.167.022-.256.028l-.345.028c-.11.008-.22.017-.33.017l-.467.004h-.002c-.12 0-.228-.007-.335-.013l-.37-.02c-.06-.005-.118-.01-.175-.018l-.206-.025c-.11-.012-.22-.025-.33-.04-.63-.098-1.24-.24-1.834-.424-.606-.197-1.172-.42-1.688-.666-.085-.04-.174-.084-.262-.13l-.317-.16c-.053-.027-.097-.052-.14-.077l-.778-.456c-.485-.306-.918-.61-1.294-.91-.406-.314-.76-.634-1.052-.905-.337-.326-.603-.603-.82-.85l-.053-.062c-.097-.11-.187-.215-.267-.318l-.08-.1c-.066-.082-.127-.157-.18-.23l-.433-.626c-.135-.205-.098-.478.088-.638.186-.16.46-.157.644.006l.544.47c.06.05.12.094.182.14l.112.085c.09.068.185.134.286.203l.067.046c.233.16.524.34.888.546.306.166.683.363 1.09.538.38.17.806.33 1.27.48l1.154.304c.07.016.14.032.21.044.444.086.918.144 1.417.175.435.02.905.007 1.352-.038l.384-.054.075-.012.16-.033c.037-.008.082-.018.127-.026.055-.01.11-.022.163-.036l.308-.085c.067-.016.114-.034.16-.05.038-.015.075-.028.11-.04l.138-.048c.034-.01.06-.02.088-.032.066-.03.12-.054.175-.077.115-.05.223-.096.313-.147l.24-.126.205-.128c.107-.06.194-.125.285-.193l.095-.07.018-.012-1.487-1.08c-.154-.114-.228-.307-.19-.495.04-.187.187-.334.374-.374.197-.043 4.84-1.124 5.514-6.028.028-.203.18-.367.38-.41.2-.043.406.045.515.22.862 1.383 1.527 2.918 1.98 4.562.335 1.226.524 2.4.62 3.456-.064.04-.128.08-.19.122-.106-.017-.215-.026-.324-.026-.347 0-.69.088-.993.255-.044.026-.083.047-.12.07-.042.022-.08.043-.112.063l-.032.02-.05.03-.015.01c-1.322.804-2.34 1.992-2.945 3.386l-.244.114c-.163.077-.346.164-.548.236l-.085.032c-.213.082-.434.168-.68.236l-.38.113c-.145.036-.267.063-.39.09l-.05.012zM15.083 4.575c3.203-3.243 6.76-4.497 6.91-4.55.158-.052.332-.023.462.08.13.104.2.267.18.432l-.34 3.23.22.108.82.462c.052.03.112.07.172.112l.275.19c.147.1.313.215.476.354l.07.056c.178.144.362.292.545.472l.287.273c.092.096.166.176.24.257l.067.073c.166.173.32.368.47.557l.102.13c.05.062.1.134.15.207l.196.285c.068.098.135.197.195.302l.224.378c.056.097.106.196.156.295l.17.335c.027.056.05.11.074.166l.07.164c.048.11.096.218.14.327.23.594.413 1.195.55 1.8.13.624.22 1.226.266 1.796.01.092.014.19.02.29l.018.355c.003.06.003.108.004.156l.005.486-.012.422c-.023.57-.07 1.097-.142 1.575-.07.513-.174.998-.258 1.362-.114.458-.22.827-.327 1.137l-.025.07c-.048.142-.093.275-.143.397l-.043.11c-.038.1-.075.193-.114.278l-.325.688c-.084.17-.255.27-.435.27-.054 0-.108-.01-.16-.028-.232-.08-.367-.32-.315-.56l.133-.704c.017-.08.024-.154.033-.232l.016-.135c.015-.116.024-.237.034-.365l.004-.064c.024-.29.033-.63.03-1.044-.01-.348-.027-.774-.08-1.214-.044-.415-.117-.863-.22-1.34l-.312-1.15c-.02-.067-.042-.136-.067-.204-.15-.428-.336-.867-.558-1.315-.205-.395-.444-.785-.708-1.153l-.24-.306c-.015-.02-.03-.04-.046-.057l-.11-.122-.085-.095c-.037-.042-.073-.085-.112-.123l-.228-.224c-.05-.053-.088-.084-.126-.116-.03-.025-.06-.05-.088-.076l-.11-.092c-.027-.025-.048-.045-.073-.062l-.152-.112c-.1-.075-.195-.145-.283-.197l-.445-.258c-.106-.06-.204-.104-.31-.15l-.106-.047-.02-.01-.195 1.83c-.02.19-.15.35-.332.41-.18.06-.383.007-.51-.135-.022-.022-2.15-2.307-5.295-2.307-.892 0-1.795.184-2.685.546-.19.077-.407.027-.544-.125-.138-.152-.166-.374-.07-.555.768-1.438 1.765-2.783 2.963-3.995zm103.002 15.177c-.027.057-.084.093-.147.093h-2.885c-.052 0-.1-.025-.13-.066l-2.788-3.8v3.703c0 .09-.072.162-.162.162h-2.156c-.09 0-.162-.073-.162-.162V7.688c0-.09.073-.162.162-.162h2.156c.09 0 .162.072.162.162v6.72l2.59-3.797c.03-.043.08-.07.133-.07h2.545c.06 0 .117.035.145.09.027.054.022.12-.014.17l-3.167 4.29 3.696 4.49c.04.05.05.115.022.172zm-12.83-2.735c-.458.496-1.034.737-1.76.737-.75 0-1.33-.24-1.777-.73-.446-.486-.67-1.097-.67-1.815s.227-1.335.678-1.834c.453-.5 1.03-.744 1.768-.744.747 0 1.328.243 1.776.744.446.5.672 1.115.672 1.833 0 .715-.225 1.306-.687 1.807zm-1.76-6.752c-1.412 0-2.6.487-3.53 1.447-.928.958-1.398 2.135-1.398 3.497 0 1.36.476 2.533 1.416 3.482.94.948 2.122 1.428 3.51 1.428 1.402 0 2.586-.483 3.52-1.437.935-.954 1.41-2.123 1.41-3.474 0-1.374-.475-2.554-1.41-3.506-.934-.955-2.12-1.44-3.52-1.44zm-8.855 6.752c-.458.496-1.034.737-1.76.737-.75 0-1.33-.24-1.778-.73-.445-.486-.67-1.097-.67-1.815s.228-1.335.68-1.834c.45-.5 1.03-.744 1.767-.744.746 0 1.327.243 1.774.744.446.5.672 1.115.672 1.833 0 .715-.224 1.306-.686 1.807zm-1.76-6.752c-1.413 0-2.6.487-3.53 1.447-.928.958-1.4 2.135-1.4 3.497 0 1.36.478 2.533 1.418 3.482.94.948 2.122 1.428 3.51 1.428 1.4 0 2.586-.483 3.52-1.437.935-.954 1.408-2.123 1.408-3.474 0-1.374-.473-2.554-1.408-3.506-.935-.955-2.12-1.44-3.52-1.44zm-10.594 2.367c.726 0 1.29.235 1.727.72.435.482.656 1.107.656 1.857 0 .737-.224 1.354-.664 1.83-.44.48-1.004.714-1.72.714-.738 0-1.327-.25-1.802-.762-.472-.51-.71-1.152-.71-1.912 0-.723.235-1.298.72-1.76.48-.456 1.082-.688 1.792-.688zm.227-2.367c-1.018 0-1.894.33-2.61.985V7.688c0-.09-.072-.162-.162-.162h-2.155c-.09 0-.162.072-.162.162v11.995c0 .09.073.162.162.162h1.978c.087 0 .16-.07.162-.158l.02-.752c.307.36.666.633 1.07.818.534.244 1.127.367 1.762.367 1.462 0 2.634-.548 3.484-1.63.722-.917 1.09-2.027 1.09-3.297 0-1.302-.373-2.428-1.106-3.348-.84-1.048-2.028-1.58-3.53-1.58zm-5.98.13v2.107c0 .09-.074.162-.163.162-.602 0-1.036.174-1.325.53-.293.365-.442.917-.442 1.642v4.847c0 .09-.073.162-.162.162h-2.155c-.09 0-.162-.073-.162-.162v-8.98c0-.09.072-.162.162-.162h1.977c.09 0 .163.073.163.163v.306c.446-.517 1.027-.777 1.734-.777h.21c.09 0 .162.072.162.162zm-11.94 2.688c.42-.3.91-.45 1.455-.45.524 0 .995.145 1.396.434.345.248.597.586.75 1.007h-4.405c.177-.402.447-.735.804-.99zm1.455-2.818c-1.545 0-2.804.574-3.74 1.707-.8.962-1.204 2.068-1.204 3.286 0 1.197.405 2.28 1.205 3.223.924 1.09 2.17 1.64 3.705 1.64.967 0 1.866-.254 2.67-.758.81-.504 1.428-1.247 1.84-2.21.02-.05.016-.106-.014-.152-.03-.045-.08-.073-.135-.073h-2.43c-.048 0-.092.02-.123.056-.23.265-.53.47-.89.605-.304.11-.64.166-.998.166-.534 0-1.006-.15-1.402-.45-.345-.26-.585-.586-.73-.993h6.817c.08 0 .15-.06.16-.14.032-.252.05-.498.05-.732v-.242c0-1.395-.45-2.577-1.333-3.514-.887-.94-2.048-1.417-3.45-1.417zm-8.557 4.928c0 .748-.232 1.368-.69 1.846-.465.48-1.045.714-1.773.714-.716 0-1.287-.237-1.746-.723-.454-.48-.684-1.1-.684-1.837 0-.77.232-1.395.69-1.86.46-.465 1.045-.7 1.74-.7.718 0 1.295.236 1.765.722.472.49.7 1.09.7 1.838zm2.19-7.667h-2.157c-.088 0-.16.072-.162.16l-.028 3.538c-.29-.277-.612-.494-.958-.65-.463-.205-.998-.31-1.59-.31-1.293 0-2.406.474-3.31 1.407-.9.933-1.358 2.13-1.358 3.555 0 1.372.457 2.543 1.358 3.48.902.94 1.994 1.415 3.245 1.415.706 0 1.343-.158 1.895-.47.33-.188.64-.436.925-.74v.773c0 .09.072.162.162.162h1.977c.09 0 .16-.073.16-.162V7.688c0-.09-.07-.162-.16-.162zm-9.924 2.87V12.5c0 .09-.072.162-.162.162-.602 0-1.036.174-1.325.53-.294.365-.443.917-.443 1.642v4.847c0 .09-.073.162-.162.162H45.51c-.09 0-.163-.073-.163-.162v-8.98c0-.09.073-.162.163-.162h1.977c.09 0 .162.073.162.163v.306c.445-.517 1.026-.777 1.734-.777h.21c.09 0 .162.072.162.162zm-15.103.532c.743-.75 1.69-1.133 2.818-1.133 1.118 0 2.063.384 2.812 1.14.75.76 1.128 1.687 1.128 2.76 0 1.082-.38 2.02-1.13 2.79-.747.766-1.698 1.155-2.825 1.155-1.095 0-2.033-.386-2.786-1.148-.755-.763-1.138-1.705-1.138-2.798 0-1.084.377-2.014 1.12-2.766zm2.818-3.613c-1.818 0-3.37.63-4.61 1.87-1.243 1.24-1.872 2.773-1.872 4.557 0 1.774.63 3.297 1.87 4.527 1.242 1.228 2.794 1.85 4.613 1.85 1.82 0 3.372-.622 4.613-1.85 1.242-1.23 1.872-2.754 1.872-4.528 0-1.784-.63-3.318-1.87-4.558-1.243-1.24-2.795-1.87-4.614-1.87zm-6.963 24.977h.002c.198-.21.347-.408.535-.697.485-.747.775-1.657-.372-2.832-.837-.857-1.446-1.084-1.742-1.172-.097-.028-.185.07-.145.164.217.513.247 1.106.017 1.766-.042.122-.166.395-.334.643-.594.876-1.63 1.793-3.287 2.443-.717.283-1.232.42-1.604.48-.104.016-.13.153-.04.208l.114.067c.008.007.057.034.075.045.02.01.04.02.06.032 1.47.803 3.153.866 4.612.306.15-.058.32.003.4.142l.347.605c.28.486.898.654 1.384.376l.018-.01c.486-.28.654-.9.376-1.385l-.46-.802c-.066-.122-.048-.272.045-.376zm-4.452-1.002c.074-.07.034-.196-.068-.21-.553-.067-1.08-.337-1.538-.867-.085-.096-.26-.34-.39-.61-.462-.952-.74-2.31-.474-4.068.115-.764.254-1.278.388-1.63.037-.098-.068-.19-.16-.14l-.115.066-.077.044-.058.036c-1.43.872-2.327 2.298-2.57 3.84-.026.16-.163.276-.324.276h-.696c-.56-.003-1.016.45-1.018 1.01v.02c0 .56.45 1.015 1.01 1.017l.93.003c.137.006.256.096.3.228v.002c.08.276.178.505.335.812.404.794 1.048 1.5 2.638 1.094 1.16-.296 1.663-.71 1.887-.922zm5.868-2.745v-.068c-.04-1.675-.828-3.164-2.043-4.147-.125-.1-.157-.278-.076-.417l.35-.603c.282-.485.117-1.105-.367-1.387l-.018-.01c-.485-.282-1.106-.118-1.387.367l-.465.8c-.073.117-.212.176-.35.147-.28-.068-.528-.098-.87-.116-.89-.046-1.825.158-2.268 1.738-.323 1.154-.216 1.796-.144 2.095.023.1.152.128.214.046.336-.446.834-.768 1.52-.9.127-.023.426-.053.725-.03 1.055.075 2.37.514 3.76 1.623.603.48.978.86 1.216 1.15.068.082.2.037.202-.068v-.133c.002-.01.002-.066 0-.087zm-6.786.164c-.063-.796.596-1.455 1.39-1.392.627.05 1.134.556 1.183 1.182.063.795-.596 1.454-1.39 1.39-.627-.048-1.134-.555-1.183-1.18zm43.755-.526c.2-.143.434-.216.695-.216.252 0 .477.07.67.208.163.118.283.278.355.478h-2.104c.086-.19.214-.35.384-.47zm2.353-.677c-.426-.452-.984-.682-1.658-.682-.742 0-1.347.277-1.797.82-.384.463-.58.995-.58 1.58 0 .576.196 1.097.58 1.55.445.522 1.044.787 1.782.787.464 0 .896-.122 1.284-.364s.686-.6.883-1.062l-.075-.113h-1.167l-.06.028c-.11.128-.254.225-.427.29-.144.053-.306.08-.477.08-.256 0-.482-.072-.67-.215-.162-.12-.28-.28-.348-.47h3.267l.08-.072c.016-.12.024-.24.024-.35v-.117c0-.67-.216-1.24-.64-1.69zm-4.516-2.09l.08.08v1.036l-.08.08h-.133c-.145 0-.252.038-.328.114-.068.067-.104.143-.112.23h.57l.082.082v.917l-.08.08h-.573v3.312l-.082.08H65.04l-.08-.08v-3.312h-.285l-.08-.08v-.92l.08-.08h.285c.007-.477.152-.855.433-1.126.287-.275.67-.415 1.142-.415h.194zm-4.068 3.77c0 .368-.108.67-.32.895-.214.227-.487.338-.836.338-.354 0-.635-.11-.856-.336-.223-.225-.33-.504-.33-.85 0-.37.112-.677.334-.912.225-.238.504-.354.852-.354.353 0 .627.11.84.34.21.23.316.524.316.878zm.105-2.23l-.082.08-.01.37c-.324-.386-.77-.582-1.332-.582-.623 0-1.154.232-1.58.69-.425.454-.64 1.033-.64 1.718 0 .686.224 1.258.668 1.7.42.418.932.63 1.522.63.306 0 .594-.065.856-.193.195-.095.368-.224.517-.38v.36l.082.08h.95l.08-.08v-4.31l-.08-.082h-.95zm-4.23 3.045c0 .45-.152.826-.452 1.12-.3.292-.7.44-1.185.44-.498 0-.907-.162-1.217-.483-.284-.296-.428-.663-.428-1.092l.08-.082h1.036l.082.082c0 .13.044.234.136.312.094.08.21.12.35.12.127 0 .224-.03.298-.096.07-.062.104-.148.104-.264 0-.097-.028-.173-.085-.23-.03-.03-.098-.077-.252-.137-.068-.024-.12-.04-.157-.05l-.283-.095c-.314-.1-.56-.223-.726-.364-.283-.243-.426-.563-.426-.953 0-.354.126-.67.372-.937.285-.31.676-.468 1.165-.468.413 0 .765.132 1.047.39.283.263.426.603.426 1.014l-.08.08h-1.035l-.08-.072c-.01-.076-.038-.14-.09-.195-.045-.05-.117-.075-.22-.075-.107 0-.183.026-.232.08-.05.053-.075.12-.075.203 0 .116.06.2.19.27.072.038.21.083.41.133.38.09.67.206.86.346.312.232.47.57.47 1.002zm-4.173-4.49l.08.08v.95l-.08.08H53.33l-.082-.08v-.95l.08-.08h1.036zm0 1.446l.08.08v4.31l-.08.082H53.33l-.082-.08v-4.31l.08-.082h1.036zm-5.166 1.34c.23-.22.518-.33.858-.33.347 0 .617.113.827.344.208.232.314.53.314.89 0 .353-.107.648-.317.877-.212.228-.48.34-.824.34-.353 0-.635-.12-.862-.365-.226-.243-.34-.55-.34-.915 0-.346.112-.622.344-.843zm.967-1.473c-.487 0-.906.158-1.25.47V25.59l-.08-.08H47.8l-.08.08v5.757l.08.08h.95l.08-.08.01-.35c.146.168.317.298.51.386.255.117.54.176.846.176.702 0 1.266-.263 1.674-.783.347-.442.523-.976.523-1.586 0-.626-.18-1.167-.53-1.61-.405-.503-.975-.76-1.698-.76zm-4 .535c.332.353.5.85.5 1.472v2.517l-.08.08H45.55l-.08-.08V29.06c0-.303-.038-.538-.11-.698-.123-.272-.338-.404-.658-.404-.31 0-.52.13-.642.396-.078.17-.118.408-.118.706v2.287l-.08.08h-1.035l-.08-.08V29.06c0-.303-.038-.538-.11-.698-.123-.272-.338-.404-.66-.404-.31 0-.52.13-.64.396-.08.17-.118.408-.118.706v2.287l-.082.08h-1.035l-.08-.08v-4.31l.08-.082h.95l.08.08v.182c.123-.12.262-.21.416-.27.467-.182.95-.158 1.35.03.226.106.41.257.553.45.133-.162.292-.292.472-.387.263-.144.567-.218.9-.218.556 0 1.007.18 1.34.535zm-9.17 1.387h-1.07l.535-1.376.535 1.377zm-.107-3.236h-.856l-.075.05-2.396 5.758.076.112h1.174l.076-.05.57-1.436h2.007l.57 1.435.076.05h1.174l.075-.112-2.398-5.757-.074-.05zm-19.795 3.962l-1.1 2.558h-.64l.365-.85-.69-1.708h.667l.356.996.374-.996h.67zm-3.416.64c.09-.084.195-.124.326-.124.13 0 .23.04.31.127.08.09.118.2.118.34 0 .136-.04.245-.12.333-.078.085-.178.127-.307.127-.133 0-.24-.045-.325-.137-.087-.094-.13-.208-.13-.35 0-.13.043-.234.13-.316zm.37-.695c-.178 0-.337.05-.472.144v-.69h-.594v2.56h.557l.003-.117c.045.04.095.07.148.094.113.052.238.078.373.078.31 0 .556-.115.736-.344.15-.192.228-.424.228-.69 0-.27-.078-.506-.232-.7-.178-.22-.428-.333-.744-.333z" fill="#FFF" fill-rule="evenodd"/></svg>